<mxfile host="app.diagrams.net" modified="2023-08-28T08:55:07.889Z" agent="Mozilla/5.0 (Windows NT 10.0; Win64; x64) AppleWebKit/537.36 (KHTML, like Gecko) Chrome/116.0.0.0 Safari/537.36 Edg/116.0.1938.62" etag="TOQ2ZgXbC26CDHj6skkZ" version="21.6.8" type="device">
  <diagram id="g5uu2ydyVNmrVTP5j4bE" name="Page-1">
    <mxGraphModel dx="4937" dy="1697" grid="1" gridSize="10" guides="1" tooltips="1" connect="1" arrows="1" fold="1" page="1" pageScale="1" pageWidth="850" pageHeight="1100" math="0" shadow="0">
      <root>
        <mxCell id="0" />
        <mxCell id="1" parent="0" />
        <mxCell id="eqqADigUgOdr0eqPzCLK-217" value="" style="endArrow=none;dashed=1;html=1;entryX=0.902;entryY=0.977;entryDx=0;entryDy=0;startArrow=none;strokeWidth=1;dashPattern=12 12;entryPerimeter=0;" parent="1" target="3" edge="1">
          <mxGeometry width="50" height="50" relative="1" as="geometry">
            <mxPoint x="759.5" y="1100.75" as="sourcePoint" />
            <mxPoint x="759.5" y="260.75" as="targetPoint" />
          </mxGeometry>
        </mxCell>
        <mxCell id="73" value="" style="endArrow=none;dashed=1;html=1;entryX=0.5;entryY=1;entryDx=0;entryDy=0;startArrow=none;strokeWidth=1;dashPattern=12 12;" parent="1" target="72" edge="1">
          <mxGeometry width="50" height="50" relative="1" as="geometry">
            <mxPoint x="630" y="380" as="sourcePoint" />
            <mxPoint x="629.4099999999999" y="69.99999999999989" as="targetPoint" />
          </mxGeometry>
        </mxCell>
        <mxCell id="83" value="" style="endArrow=none;dashed=1;html=1;startArrow=none;strokeWidth=1;dashPattern=12 12;" parent="1" source="94" edge="1">
          <mxGeometry width="50" height="50" relative="1" as="geometry">
            <mxPoint x="629.6900000000005" y="1119.4" as="sourcePoint" />
            <mxPoint x="631" y="390" as="targetPoint" />
          </mxGeometry>
        </mxCell>
        <mxCell id="99" value="" style="endArrow=none;dashed=1;html=1;entryX=0.5;entryY=1;entryDx=0;entryDy=0;strokeWidth=1;dashPattern=12 12;" parent="1" target="98" edge="1">
          <mxGeometry width="50" height="50" relative="1" as="geometry">
            <mxPoint x="939" y="1100" as="sourcePoint" />
            <mxPoint x="939" y="176" as="targetPoint" />
          </mxGeometry>
        </mxCell>
        <mxCell id="104" value="" style="endArrow=none;dashed=1;html=1;strokeWidth=1;dashPattern=12 12;" parent="1" source="119" edge="1">
          <mxGeometry width="50" height="50" relative="1" as="geometry">
            <mxPoint x="1106.69" y="1085.4" as="sourcePoint" />
            <mxPoint x="1107" y="651" as="targetPoint" />
          </mxGeometry>
        </mxCell>
        <mxCell id="Kq7Vi0KwZZ0XseQO3FKs-134" value="" style="endArrow=none;dashed=1;html=1;entryX=0.5;entryY=1;entryDx=0;entryDy=0;startArrow=none;strokeWidth=1;dashPattern=12 12;" parent="1" source="103" target="70" edge="1">
          <mxGeometry width="50" height="50" relative="1" as="geometry">
            <mxPoint x="1108" y="671" as="sourcePoint" />
            <mxPoint x="1106.4099999999994" y="65.99999999999989" as="targetPoint" />
          </mxGeometry>
        </mxCell>
        <mxCell id="i-jlYU0YFLsD1YkG08GD-186" value="" style="whiteSpace=wrap;html=1;startSize=0;strokeWidth=2;fillColor=#f0a30a;fontColor=#000000;strokeColor=#BD7000;" parent="1" vertex="1">
          <mxGeometry x="840" y="20" width="200" height="50" as="geometry" />
        </mxCell>
        <mxCell id="SM7ePQgca3Z7FYj1npnr-144" value="&lt;span style=&quot;font-size: 20px;&quot;&gt;&lt;b&gt;(1)&lt;/b&gt;&lt;/span&gt;" style="text;html=1;strokeColor=none;fillColor=none;align=center;verticalAlign=middle;whiteSpace=wrap;rounded=0;strokeWidth=2;" parent="1" vertex="1">
          <mxGeometry x="130" y="175" width="60" height="25" as="geometry" />
        </mxCell>
        <mxCell id="40" value="" style="edgeStyle=none;html=1;fontSize=20;" parent="1" edge="1">
          <mxGeometry relative="1" as="geometry">
            <mxPoint x="1009" y="41" as="sourcePoint" />
            <mxPoint x="1009" y="41" as="targetPoint" />
          </mxGeometry>
        </mxCell>
        <mxCell id="2" value="" style="shape=table;startSize=0;container=1;collapsible=0;childLayout=tableLayout;strokeWidth=2;" parent="1" vertex="1">
          <mxGeometry x="11" y="20" width="830" height="50" as="geometry" />
        </mxCell>
        <mxCell id="3" value="" style="shape=tableRow;horizontal=0;startSize=0;swimlaneHead=0;swimlaneBody=0;top=0;left=0;bottom=0;right=0;collapsible=0;dropTarget=0;fillColor=none;points=[[0,0.5],[1,0.5]];portConstraint=eastwest;" parent="2" vertex="1">
          <mxGeometry width="830" height="50" as="geometry" />
        </mxCell>
        <mxCell id="4" value="" style="shape=partialRectangle;html=1;whiteSpace=wrap;connectable=0;overflow=hidden;fillColor=#b1ddf0;top=0;left=0;bottom=0;right=0;pointerEvents=1;strokeColor=#10739e;" parent="3" vertex="1">
          <mxGeometry width="138" height="50" as="geometry">
            <mxRectangle width="138" height="50" as="alternateBounds" />
          </mxGeometry>
        </mxCell>
        <mxCell id="5" value="" style="shape=partialRectangle;html=1;whiteSpace=wrap;connectable=0;overflow=hidden;fillColor=#fad7ac;top=0;left=0;bottom=0;right=0;pointerEvents=1;strokeColor=#b46504;" parent="3" vertex="1">
          <mxGeometry x="138" width="139" height="50" as="geometry">
            <mxRectangle width="139" height="50" as="alternateBounds" />
          </mxGeometry>
        </mxCell>
        <mxCell id="6" value="" style="shape=partialRectangle;html=1;whiteSpace=wrap;connectable=0;overflow=hidden;fillColor=#f8cecc;top=0;left=0;bottom=0;right=0;pointerEvents=1;strokeColor=#b85450;" parent="3" vertex="1">
          <mxGeometry x="277" width="138" height="50" as="geometry">
            <mxRectangle width="138" height="50" as="alternateBounds" />
          </mxGeometry>
        </mxCell>
        <mxCell id="7" value="" style="shape=partialRectangle;html=1;whiteSpace=wrap;connectable=0;overflow=hidden;fillColor=#60a917;top=0;left=0;bottom=0;right=0;pointerEvents=1;fontColor=#ffffff;strokeColor=#2D7600;" parent="3" vertex="1">
          <mxGeometry x="415" width="138" height="50" as="geometry">
            <mxRectangle width="138" height="50" as="alternateBounds" />
          </mxGeometry>
        </mxCell>
        <mxCell id="8" value="" style="shape=partialRectangle;html=1;whiteSpace=wrap;connectable=0;overflow=hidden;fillColor=#1ba1e2;top=0;left=0;bottom=0;right=0;pointerEvents=1;fontColor=#ffffff;strokeColor=#006EAF;" parent="3" vertex="1">
          <mxGeometry x="553" width="139" height="50" as="geometry">
            <mxRectangle width="139" height="50" as="alternateBounds" />
          </mxGeometry>
        </mxCell>
        <mxCell id="9" value="&lt;span style=&quot;font-size: 21px;&quot;&gt;&lt;b&gt;Bang[n]&lt;/b&gt;&lt;/span&gt;" style="shape=partialRectangle;html=1;whiteSpace=wrap;connectable=0;overflow=hidden;fillColor=#6a00ff;top=0;left=0;bottom=0;right=0;pointerEvents=1;fontColor=#ffffff;strokeColor=#3700CC;" parent="3" vertex="1">
          <mxGeometry x="692" width="138" height="50" as="geometry">
            <mxRectangle width="138" height="50" as="alternateBounds" />
          </mxGeometry>
        </mxCell>
        <mxCell id="17" value="" style="endArrow=none;dashed=1;html=1;entryX=0.254;entryY=1.02;entryDx=0;entryDy=0;entryPerimeter=0;exitX=0.255;exitY=1.013;exitDx=0;exitDy=0;exitPerimeter=0;" parent="2" source="3" target="3" edge="1">
          <mxGeometry width="50" height="50" relative="1" as="geometry">
            <mxPoint x="211" y="1080" as="sourcePoint" />
            <mxPoint x="79.7199999999998" y="65.59999999999991" as="targetPoint" />
            <Array as="points" />
          </mxGeometry>
        </mxCell>
        <mxCell id="10" value="&lt;font style=&quot;font-size: 20px;&quot;&gt;&lt;b&gt;Player&lt;/b&gt;&lt;/font&gt;" style="text;html=1;strokeColor=none;fillColor=none;align=center;verticalAlign=middle;whiteSpace=wrap;rounded=0;strokeWidth=2;" parent="1" vertex="1">
          <mxGeometry x="50" y="30" width="60" height="30" as="geometry" />
        </mxCell>
        <mxCell id="11" value="&lt;b style=&quot;font-size: 22px;&quot;&gt;AK&lt;/b&gt;" style="text;html=1;strokeColor=none;fillColor=none;align=center;verticalAlign=middle;whiteSpace=wrap;rounded=0;strokeWidth=2;fontSize=22;" parent="1" vertex="1">
          <mxGeometry x="180" y="30" width="80" height="30" as="geometry" />
        </mxCell>
        <mxCell id="12" value="&lt;font style=&quot;font-size: 20px;&quot;&gt;&lt;b&gt;Archery&lt;/b&gt;&lt;/font&gt;" style="text;html=1;strokeColor=none;fillColor=none;align=center;verticalAlign=middle;whiteSpace=wrap;rounded=0;strokeWidth=2;" parent="1" vertex="1">
          <mxGeometry x="330" y="30" width="60" height="30" as="geometry" />
        </mxCell>
        <mxCell id="13" value="&lt;font style=&quot;font-size: 20px;&quot;&gt;&lt;b&gt;Arrow[n]&lt;/b&gt;&lt;/font&gt;" style="text;html=1;strokeColor=none;fillColor=none;align=center;verticalAlign=middle;whiteSpace=wrap;rounded=0;strokeWidth=2;" parent="1" vertex="1">
          <mxGeometry x="470" y="30" width="60" height="30" as="geometry" />
        </mxCell>
        <mxCell id="14" value="&lt;span style=&quot;font-size: 20px;&quot;&gt;&lt;b&gt;SCREEN&lt;/b&gt;&lt;/span&gt;" style="text;html=1;strokeColor=none;fillColor=none;align=center;verticalAlign=middle;whiteSpace=wrap;rounded=0;strokeWidth=2;" parent="1" vertex="1">
          <mxGeometry x="600" y="30" width="60" height="30" as="geometry" />
        </mxCell>
        <mxCell id="15" value="&lt;font style=&quot;font-size: 20px;&quot;&gt;&lt;b&gt;Meteoroid[n]&lt;/b&gt;&lt;/font&gt;" style="text;html=1;strokeColor=none;fillColor=none;align=center;verticalAlign=middle;whiteSpace=wrap;rounded=0;strokeWidth=2;" parent="1" vertex="1">
          <mxGeometry x="904.5" y="30" width="80" height="30" as="geometry" />
        </mxCell>
        <mxCell id="16" value="" style="endArrow=none;dashed=1;html=1;entryX=0.084;entryY=1.112;entryDx=0;entryDy=0;entryPerimeter=0;strokeWidth=1;dashPattern=12 12;" parent="1" target="3" edge="1">
          <mxGeometry width="50" height="50" relative="1" as="geometry">
            <mxPoint x="80" y="1100" as="sourcePoint" />
            <mxPoint x="670" y="580" as="targetPoint" />
          </mxGeometry>
        </mxCell>
        <mxCell id="18" value="" style="endArrow=none;dashed=1;html=1;entryX=0.084;entryY=1.112;entryDx=0;entryDy=0;entryPerimeter=0;startArrow=none;strokeWidth=1;dashPattern=12 12;" parent="1" source="27" edge="1">
          <mxGeometry width="50" height="50" relative="1" as="geometry">
            <mxPoint x="359.51" y="1094.4" as="sourcePoint" />
            <mxPoint x="359.2299999999998" y="69.99999999999991" as="targetPoint" />
          </mxGeometry>
        </mxCell>
        <mxCell id="19" value="" style="endArrow=none;dashed=1;html=1;entryX=0.084;entryY=1.112;entryDx=0;entryDy=0;entryPerimeter=0;startArrow=none;strokeWidth=1;dashPattern=12 12;" parent="1" source="57" edge="1">
          <mxGeometry width="50" height="50" relative="1" as="geometry">
            <mxPoint x="499.51" y="1094.4" as="sourcePoint" />
            <mxPoint x="499.2299999999998" y="69.99999999999991" as="targetPoint" />
          </mxGeometry>
        </mxCell>
        <mxCell id="21" value="" style="endArrow=none;dashed=1;html=1;startArrow=none;strokeWidth=1;dashPattern=12 12;" parent="1" source="62" edge="1">
          <mxGeometry width="50" height="50" relative="1" as="geometry">
            <mxPoint x="938.51" y="1090.4" as="sourcePoint" />
            <mxPoint x="939" y="70" as="targetPoint" />
          </mxGeometry>
        </mxCell>
        <mxCell id="44" value="" style="edgeStyle=none;html=1;fontSize=20;" parent="1" target="43" edge="1">
          <mxGeometry relative="1" as="geometry">
            <mxPoint x="1129" y="45.000000000000114" as="sourcePoint" />
          </mxGeometry>
        </mxCell>
        <mxCell id="109" value="" style="edgeStyle=none;html=1;strokeWidth=5;" parent="1" edge="1">
          <mxGeometry relative="1" as="geometry">
            <mxPoint x="1167" y="45" as="sourcePoint" />
            <mxPoint x="1167" y="45" as="targetPoint" />
          </mxGeometry>
        </mxCell>
        <mxCell id="43" value="" style="whiteSpace=wrap;html=1;startSize=0;strokeWidth=2;fillColor=#a0522d;fontColor=#ffffff;strokeColor=#6D1F00;" parent="1" vertex="1">
          <mxGeometry x="1040" y="20" width="149" height="50" as="geometry" />
        </mxCell>
        <mxCell id="45" value="&lt;span style=&quot;font-size: 20px;&quot;&gt;&lt;b&gt;Border&lt;/b&gt;&lt;/span&gt;" style="text;html=1;strokeColor=none;fillColor=none;align=center;verticalAlign=middle;whiteSpace=wrap;rounded=0;strokeWidth=2;" parent="1" vertex="1">
          <mxGeometry x="1077" y="30" width="60" height="30" as="geometry" />
        </mxCell>
        <mxCell id="49" value="" style="endArrow=none;dashed=1;html=1;entryX=0.084;entryY=1.112;entryDx=0;entryDy=0;entryPerimeter=0;startArrow=none;strokeWidth=1;dashPattern=12 12;" parent="1" source="72" edge="1">
          <mxGeometry width="50" height="50" relative="1" as="geometry">
            <mxPoint x="629.6900000000003" y="1094.4" as="sourcePoint" />
            <mxPoint x="629.4099999999996" y="69.99999999999989" as="targetPoint" />
          </mxGeometry>
        </mxCell>
        <mxCell id="51" value="" style="endArrow=none;dashed=1;html=1;entryX=0.084;entryY=1.112;entryDx=0;entryDy=0;entryPerimeter=0;startArrow=none;strokeWidth=1;dashPattern=12 12;" parent="1" source="70" edge="1">
          <mxGeometry width="50" height="50" relative="1" as="geometry">
            <mxPoint x="1106.69" y="1090.4" as="sourcePoint" />
            <mxPoint x="1106.4099999999994" y="65.99999999999989" as="targetPoint" />
          </mxGeometry>
        </mxCell>
        <mxCell id="56" style="edgeStyle=none;html=1;exitX=1;exitY=0;exitDx=0;exitDy=0;strokeWidth=3;fillColor=#d80073;strokeColor=#151515;" parent="1" edge="1">
          <mxGeometry relative="1" as="geometry">
            <mxPoint x="350.12" y="200.41176470588243" as="targetPoint" />
            <mxPoint x="220.12" y="200" as="sourcePoint" />
            <Array as="points">
              <mxPoint x="220.12" y="200" />
            </Array>
          </mxGeometry>
        </mxCell>
        <mxCell id="61" value="" style="endArrow=none;dashed=1;html=1;entryX=0.5;entryY=1;entryDx=0;entryDy=0;strokeWidth=1;dashPattern=12 12;" parent="1" source="77" target="57" edge="1">
          <mxGeometry width="50" height="50" relative="1" as="geometry">
            <mxPoint x="499.51" y="1094.4" as="sourcePoint" />
            <mxPoint x="499.2299999999998" y="69.99999999999989" as="targetPoint" />
          </mxGeometry>
        </mxCell>
        <mxCell id="57" value="" style="rounded=0;whiteSpace=wrap;html=1;strokeWidth=2;fontSize=20;fillColor=#60a917;fontColor=#ffffff;strokeColor=#2D7600;" parent="1" vertex="1">
          <mxGeometry x="490.12" y="180" width="20" height="20" as="geometry" />
        </mxCell>
        <mxCell id="63" value="" style="endArrow=none;dashed=1;html=1;entryX=0.5;entryY=1;entryDx=0;entryDy=0;startArrow=none;strokeWidth=1;dashPattern=12 12;" parent="1" source="87" target="62" edge="1">
          <mxGeometry width="50" height="50" relative="1" as="geometry">
            <mxPoint x="938.5100000000002" y="1090.4" as="sourcePoint" />
            <mxPoint x="938.2299999999996" y="65.99999999999989" as="targetPoint" />
          </mxGeometry>
        </mxCell>
        <mxCell id="62" value="" style="rounded=0;whiteSpace=wrap;html=1;strokeWidth=2;fontSize=20;fillColor=#f0a30a;fontColor=#000000;strokeColor=#BD7000;" parent="1" vertex="1">
          <mxGeometry x="929" y="140" width="20" height="60" as="geometry" />
        </mxCell>
        <mxCell id="64" style="edgeStyle=none;html=1;exitX=1;exitY=0;exitDx=0;exitDy=0;strokeWidth=3;fillColor=#60a917;strokeColor=#151515;" parent="1" edge="1">
          <mxGeometry relative="1" as="geometry">
            <mxPoint x="490.12" y="180" as="targetPoint" />
            <mxPoint x="220.12" y="180" as="sourcePoint" />
            <Array as="points">
              <mxPoint x="220.12" y="180" />
            </Array>
          </mxGeometry>
        </mxCell>
        <mxCell id="65" style="edgeStyle=none;html=1;exitX=1;exitY=0;exitDx=0;exitDy=0;strokeWidth=3;entryX=0;entryY=0;entryDx=0;entryDy=0;strokeColor=#151515;" parent="1" target="62" edge="1">
          <mxGeometry relative="1" as="geometry">
            <mxPoint x="760" y="140" as="targetPoint" />
            <mxPoint x="220" y="140" as="sourcePoint" />
            <Array as="points">
              <mxPoint x="220" y="140" />
            </Array>
          </mxGeometry>
        </mxCell>
        <mxCell id="67" style="edgeStyle=none;html=1;strokeWidth=2;entryX=0;entryY=0.5;entryDx=0;entryDy=0;endArrow=classic;endFill=0;endSize=15;dashed=1;dashPattern=1 1;" parent="1" target="70" edge="1">
          <mxGeometry relative="1" as="geometry">
            <mxPoint x="1169" y="190" as="targetPoint" />
            <mxPoint x="949" y="180" as="sourcePoint" />
            <Array as="points">
              <mxPoint x="949" y="180" />
            </Array>
          </mxGeometry>
        </mxCell>
        <mxCell id="69" value="" style="endArrow=none;dashed=1;html=1;entryX=0.5;entryY=1;entryDx=0;entryDy=0;strokeWidth=1;dashPattern=12 12;" parent="1" target="27" edge="1">
          <mxGeometry width="50" height="50" relative="1" as="geometry">
            <mxPoint x="360" y="1100" as="sourcePoint" />
            <mxPoint x="359.2299999999998" y="69.99999999999989" as="targetPoint" />
          </mxGeometry>
        </mxCell>
        <mxCell id="27" value="" style="rounded=0;whiteSpace=wrap;html=1;strokeWidth=2;fontSize=20;fillColor=#f8cecc;strokeColor=#b85450;" parent="1" vertex="1">
          <mxGeometry x="350.12" y="200" width="20" height="60" as="geometry" />
        </mxCell>
        <mxCell id="71" style="edgeStyle=none;html=1;exitX=1;exitY=0;exitDx=0;exitDy=0;strokeWidth=2;entryX=-0.006;entryY=0.634;entryDx=0;entryDy=0;entryPerimeter=0;endArrow=classic;endFill=0;endSize=18;dashed=1;dashPattern=1 1;" parent="1" edge="1">
          <mxGeometry relative="1" as="geometry">
            <mxPoint x="620.0000000000001" y="258.0400000000001" as="targetPoint" />
            <mxPoint x="370.12" y="258.82" as="sourcePoint" />
            <Array as="points">
              <mxPoint x="370.12" y="258.82" />
            </Array>
          </mxGeometry>
        </mxCell>
        <mxCell id="72" value="" style="rounded=0;whiteSpace=wrap;html=1;strokeWidth=2;fontSize=20;fillColor=#1ba1e2;fontColor=#ffffff;strokeColor=#006EAF;" parent="1" vertex="1">
          <mxGeometry x="620" y="200" width="20" height="60" as="geometry" />
        </mxCell>
        <mxCell id="74" style="edgeStyle=none;html=1;strokeWidth=2;endArrow=classic;endFill=0;endSize=15;dashed=1;dashPattern=1 1;jumpSize=5;" parent="1" edge="1">
          <mxGeometry relative="1" as="geometry">
            <mxPoint x="640" y="200" as="targetPoint" />
            <mxPoint x="890" y="200" as="sourcePoint" />
            <Array as="points">
              <mxPoint x="930" y="200" />
            </Array>
          </mxGeometry>
        </mxCell>
        <mxCell id="75" style="edgeStyle=none;html=1;exitX=1;exitY=0;exitDx=0;exitDy=0;strokeWidth=3;" parent="1" edge="1">
          <mxGeometry relative="1" as="geometry">
            <mxPoint x="350" y="385" as="targetPoint" />
            <mxPoint x="80" y="385" as="sourcePoint" />
            <Array as="points">
              <mxPoint x="80" y="385" />
            </Array>
          </mxGeometry>
        </mxCell>
        <mxCell id="79" value="" style="rounded=0;whiteSpace=wrap;html=1;strokeWidth=2;fontSize=20;fillColor=#d80073;fontColor=#ffffff;strokeColor=#A50040;" parent="1" vertex="1">
          <mxGeometry x="350" y="385" width="20" height="20" as="geometry" />
        </mxCell>
        <mxCell id="85" style="edgeStyle=none;html=1;exitX=1;exitY=0;exitDx=0;exitDy=0;strokeWidth=3;" parent="1" edge="1">
          <mxGeometry relative="1" as="geometry">
            <mxPoint x="350" y="600.4117647058824" as="targetPoint" />
            <mxPoint x="220" y="600" as="sourcePoint" />
            <Array as="points">
              <mxPoint x="220" y="600" />
            </Array>
          </mxGeometry>
        </mxCell>
        <mxCell id="88" style="edgeStyle=none;html=1;exitX=1;exitY=0;exitDx=0;exitDy=0;strokeWidth=3;" parent="1" edge="1">
          <mxGeometry relative="1" as="geometry">
            <mxPoint x="490" y="580" as="targetPoint" />
            <mxPoint x="220" y="580" as="sourcePoint" />
            <Array as="points">
              <mxPoint x="220" y="580" />
            </Array>
          </mxGeometry>
        </mxCell>
        <mxCell id="89" style="edgeStyle=none;html=1;exitX=1;exitY=0;exitDx=0;exitDy=0;strokeWidth=3;entryX=0;entryY=0;entryDx=0;entryDy=0;" parent="1" target="87" edge="1">
          <mxGeometry relative="1" as="geometry">
            <mxPoint x="760" y="539" as="targetPoint" />
            <mxPoint x="220" y="539" as="sourcePoint" />
            <Array as="points">
              <mxPoint x="220" y="539" />
            </Array>
          </mxGeometry>
        </mxCell>
        <mxCell id="90" style="edgeStyle=none;html=1;exitX=1;exitY=0;exitDx=0;exitDy=0;strokeWidth=2;entryX=0;entryY=0.333;entryDx=0;entryDy=0;entryPerimeter=0;endArrow=classic;endFill=0;dashed=1;dashPattern=1 1;endSize=15;strokeColor=#000000;" parent="1" target="92" edge="1">
          <mxGeometry relative="1" as="geometry">
            <mxPoint x="1180" y="588.52" as="targetPoint" />
            <mxPoint x="950" y="588.52" as="sourcePoint" />
            <Array as="points">
              <mxPoint x="950" y="588.52" />
            </Array>
          </mxGeometry>
        </mxCell>
        <mxCell id="91" value="" style="rounded=0;whiteSpace=wrap;html=1;strokeWidth=2;fontSize=20;fillColor=#f8cecc;strokeColor=#b85450;" parent="1" vertex="1">
          <mxGeometry x="350" y="600" width="20" height="100" as="geometry" />
        </mxCell>
        <mxCell id="92" value="" style="rounded=0;whiteSpace=wrap;html=1;strokeWidth=2;fontSize=20;fillColor=#a0522d;fontColor=#ffffff;strokeColor=#6D1F00;" parent="1" vertex="1">
          <mxGeometry x="1098" y="520" width="20" height="210" as="geometry" />
        </mxCell>
        <mxCell id="93" style="edgeStyle=none;html=1;exitX=1;exitY=1;exitDx=0;exitDy=0;strokeWidth=2;entryX=-0.06;entryY=0.35;entryDx=0;entryDy=0;endArrow=classic;endFill=0;dashed=1;dashPattern=1 1;endSize=15;entryPerimeter=0;" parent="1" source="91" target="94" edge="1">
          <mxGeometry relative="1" as="geometry">
            <mxPoint x="620" y="681" as="targetPoint" />
            <mxPoint x="370" y="658.8199999999999" as="sourcePoint" />
            <Array as="points" />
          </mxGeometry>
        </mxCell>
        <mxCell id="96" value="" style="endArrow=none;dashed=1;html=1;entryX=0.5;entryY=1;entryDx=0;entryDy=0;strokeWidth=1;dashPattern=12 12;" parent="1" target="94" edge="1">
          <mxGeometry width="50" height="50" relative="1" as="geometry">
            <mxPoint x="630" y="1100" as="sourcePoint" />
            <mxPoint x="630" y="399.9999999999998" as="targetPoint" />
          </mxGeometry>
        </mxCell>
        <mxCell id="94" value="" style="rounded=0;whiteSpace=wrap;html=1;strokeWidth=2;fontSize=20;fillColor=#1ba1e2;fontColor=#ffffff;strokeColor=#006EAF;" parent="1" vertex="1">
          <mxGeometry x="620" y="660" width="20" height="110" as="geometry" />
        </mxCell>
        <mxCell id="97" style="edgeStyle=none;html=1;exitX=1.053;exitY=0.632;exitDx=0;exitDy=0;strokeWidth=2;entryX=0;entryY=0;entryDx=0;entryDy=0;exitPerimeter=0;endArrow=classic;endFill=0;dashed=1;dashPattern=1 1;endSize=15;" parent="1" source="86" target="98" edge="1">
          <mxGeometry relative="1" as="geometry">
            <mxPoint x="890" y="630" as="targetPoint" />
            <mxPoint x="510" y="577.8199999999998" as="sourcePoint" />
            <Array as="points" />
          </mxGeometry>
        </mxCell>
        <mxCell id="98" value="" style="rounded=0;whiteSpace=wrap;html=1;strokeWidth=2;fontSize=20;fillColor=#fa6800;fontColor=#000000;strokeColor=#C73500;" parent="1" vertex="1">
          <mxGeometry x="930" y="631.5" width="20" height="98.5" as="geometry" />
        </mxCell>
        <mxCell id="102" style="edgeStyle=none;html=1;strokeWidth=2;entryX=0;entryY=0;entryDx=0;entryDy=0;exitX=0.995;exitY=0.969;exitDx=0;exitDy=0;exitPerimeter=0;endArrow=classic;endFill=0;endSize=15;dashed=1;dashPattern=1 1;" parent="1" source="98" target="103" edge="1">
          <mxGeometry relative="1" as="geometry">
            <mxPoint x="1050" y="729.56" as="targetPoint" />
            <mxPoint x="950" y="730" as="sourcePoint" />
            <Array as="points" />
          </mxGeometry>
        </mxCell>
        <mxCell id="103" value="" style="rounded=0;whiteSpace=wrap;html=1;strokeWidth=2;fontSize=20;fillColor=#76608a;fontColor=#ffffff;strokeColor=#432D57;" parent="1" vertex="1">
          <mxGeometry x="1098" y="726.5" width="20" height="43.5" as="geometry" />
        </mxCell>
        <mxCell id="105" style="edgeStyle=none;html=1;strokeWidth=2;entryX=0.963;entryY=0.649;entryDx=0;entryDy=0;entryPerimeter=0;exitX=0;exitY=1;exitDx=0;exitDy=0;endArrow=classic;endFill=0;endSize=15;dashed=1;dashPattern=1 1;" parent="1" source="eqqADigUgOdr0eqPzCLK-215" edge="1">
          <mxGeometry relative="1" as="geometry">
            <mxPoint x="640.2600000000002" y="258.93999999999994" as="targetPoint" />
            <mxPoint x="1060" y="260" as="sourcePoint" />
            <Array as="points" />
          </mxGeometry>
        </mxCell>
        <mxCell id="106" style="edgeStyle=none;html=1;strokeWidth=2;entryX=1;entryY=1;entryDx=0;entryDy=0;exitX=-0.026;exitY=1.003;exitDx=0;exitDy=0;exitPerimeter=0;endArrow=classic;endFill=0;endSize=15;dashed=1;dashPattern=1 1;" parent="1" source="103" target="94" edge="1">
          <mxGeometry relative="1" as="geometry">
            <mxPoint x="641.4000000000001" y="773.7250000000001" as="targetPoint" />
            <mxPoint x="1140" y="770" as="sourcePoint" />
            <Array as="points" />
          </mxGeometry>
        </mxCell>
        <mxCell id="108" value="" style="whiteSpace=wrap;html=1;startSize=0;strokeWidth=2;fillColor=#6d8764;fontColor=#ffffff;strokeColor=#3A5431;" parent="1" vertex="1">
          <mxGeometry x="1189" y="20" width="120" height="50" as="geometry" />
        </mxCell>
        <mxCell id="110" value="&lt;span style=&quot;font-size: 20px;&quot;&gt;&lt;b&gt;EXIT&lt;/b&gt;&lt;/span&gt;" style="text;html=1;strokeColor=none;fillColor=none;align=center;verticalAlign=middle;whiteSpace=wrap;rounded=0;strokeWidth=2;" parent="1" vertex="1">
          <mxGeometry x="1220" y="30" width="60" height="30" as="geometry" />
        </mxCell>
        <mxCell id="111" value="" style="endArrow=none;dashed=1;html=1;entryX=0.084;entryY=1.112;entryDx=0;entryDy=0;entryPerimeter=0;startArrow=none;strokeWidth=1;dashPattern=12 12;" parent="1" source="124" edge="1">
          <mxGeometry width="50" height="50" relative="1" as="geometry">
            <mxPoint x="1249" y="1100" as="sourcePoint" />
            <mxPoint x="1248.2399999999993" y="66" as="targetPoint" />
          </mxGeometry>
        </mxCell>
        <mxCell id="112" style="edgeStyle=none;html=1;exitX=1;exitY=0;exitDx=0;exitDy=0;strokeWidth=3;" parent="1" edge="1">
          <mxGeometry relative="1" as="geometry">
            <mxPoint x="353.5" y="951.4117647058824" as="targetPoint" />
            <mxPoint x="223.5" y="951" as="sourcePoint" />
            <Array as="points">
              <mxPoint x="223.5" y="951" />
            </Array>
          </mxGeometry>
        </mxCell>
        <mxCell id="114" value="" style="rounded=0;whiteSpace=wrap;html=1;strokeWidth=2;fontSize=20;fillColor=#f0a30a;fontColor=#000000;strokeColor=#BD7000;" parent="1" vertex="1">
          <mxGeometry x="932.5" y="886" width="20" height="60" as="geometry" />
        </mxCell>
        <mxCell id="115" style="edgeStyle=none;html=1;exitX=1;exitY=0;exitDx=0;exitDy=0;strokeWidth=3;" parent="1" edge="1">
          <mxGeometry relative="1" as="geometry">
            <mxPoint x="493.5" y="931" as="targetPoint" />
            <mxPoint x="223.5" y="931" as="sourcePoint" />
            <Array as="points">
              <mxPoint x="223.5" y="931" />
            </Array>
          </mxGeometry>
        </mxCell>
        <mxCell id="116" style="edgeStyle=none;html=1;exitX=1;exitY=0;exitDx=0;exitDy=0;strokeWidth=3;entryX=0;entryY=0;entryDx=0;entryDy=0;" parent="1" target="114" edge="1">
          <mxGeometry relative="1" as="geometry">
            <mxPoint x="892.5" y="890" as="targetPoint" />
            <mxPoint x="223.5" y="890" as="sourcePoint" />
            <Array as="points">
              <mxPoint x="223.5" y="890" />
            </Array>
          </mxGeometry>
        </mxCell>
        <mxCell id="117" style="edgeStyle=none;html=1;exitX=1;exitY=0;exitDx=0;exitDy=0;strokeWidth=2;entryX=-0.012;entryY=0.565;entryDx=0;entryDy=0;entryPerimeter=0;endArrow=classic;endFill=0;endSize=15;dashed=1;dashPattern=1 1;" parent="1" edge="1">
          <mxGeometry relative="1" as="geometry">
            <mxPoint x="1099.5000000000002" y="936.5" as="targetPoint" />
            <mxPoint x="951.74" y="936" as="sourcePoint" />
            <Array as="points">
              <mxPoint x="951.74" y="936" />
            </Array>
          </mxGeometry>
        </mxCell>
        <mxCell id="118" value="" style="rounded=0;whiteSpace=wrap;html=1;strokeWidth=2;fontSize=20;fillColor=#f8cecc;strokeColor=#b85450;" parent="1" vertex="1">
          <mxGeometry x="352.5" y="951" width="20" height="60" as="geometry" />
        </mxCell>
        <mxCell id="120" style="edgeStyle=none;html=1;exitX=1;exitY=0;exitDx=0;exitDy=0;strokeWidth=2;endArrow=classic;endFill=0;endSize=15;dashed=1;dashPattern=1 1;" parent="1" edge="1">
          <mxGeometry relative="1" as="geometry">
            <mxPoint x="622.5" y="1009" as="targetPoint" />
            <mxPoint x="373.5" y="1009.8199999999999" as="sourcePoint" />
            <Array as="points">
              <mxPoint x="373.5" y="1009.8199999999999" />
            </Array>
          </mxGeometry>
        </mxCell>
        <mxCell id="121" value="" style="rounded=0;whiteSpace=wrap;html=1;strokeWidth=2;fontSize=20;fillColor=#1ba1e2;fontColor=#ffffff;strokeColor=#006EAF;" parent="1" vertex="1">
          <mxGeometry x="622.5" y="970" width="20" height="60" as="geometry" />
        </mxCell>
        <mxCell id="122" style="edgeStyle=none;html=1;strokeWidth=2;exitX=0;exitY=1;exitDx=0;exitDy=0;endArrow=classic;endFill=0;endSize=15;dashed=1;dashPattern=1 1;" parent="1" source="eqqADigUgOdr0eqPzCLK-220" edge="1">
          <mxGeometry relative="1" as="geometry">
            <mxPoint x="641.5" y="970" as="targetPoint" />
            <mxPoint x="892.5" y="970" as="sourcePoint" />
            <Array as="points">
              <mxPoint x="932.5" y="970" />
            </Array>
          </mxGeometry>
        </mxCell>
        <mxCell id="125" style="edgeStyle=none;html=1;strokeWidth=3;exitX=1;exitY=1;exitDx=0;exitDy=0;entryX=0;entryY=0;entryDx=0;entryDy=0;endArrow=classic;endFill=1;endSize=15;" parent="1" source="119" target="124" edge="1">
          <mxGeometry relative="1" as="geometry">
            <mxPoint x="1301.5" y="974" as="targetPoint" />
            <mxPoint x="1200.5" y="974" as="sourcePoint" />
            <Array as="points">
              <mxPoint x="1201.5" y="970" />
            </Array>
          </mxGeometry>
        </mxCell>
        <mxCell id="SM7ePQgca3Z7FYj1npnr-129" value="&lt;font style=&quot;font-size: 20px;&quot;&gt;&lt;b&gt;Time tick&lt;/b&gt;&lt;/font&gt;" style="text;html=1;strokeColor=none;fillColor=none;align=center;verticalAlign=middle;whiteSpace=wrap;rounded=0;strokeWidth=2;" parent="1" vertex="1">
          <mxGeometry x="110" y="140" width="100" height="30" as="geometry" />
        </mxCell>
        <mxCell id="SM7ePQgca3Z7FYj1npnr-130" value="&lt;font style=&quot;font-size: 20px;&quot;&gt;&lt;b&gt;Time tick&lt;/b&gt;&lt;/font&gt;" style="text;html=1;strokeColor=none;fillColor=none;align=center;verticalAlign=middle;whiteSpace=wrap;rounded=0;strokeWidth=2;" parent="1" vertex="1">
          <mxGeometry x="105" y="550" width="100" height="30" as="geometry" />
        </mxCell>
        <mxCell id="SM7ePQgca3Z7FYj1npnr-131" value="&lt;font style=&quot;font-size: 20px;&quot;&gt;&lt;b&gt;Time tick&lt;/b&gt;&lt;/font&gt;" style="text;html=1;strokeColor=none;fillColor=none;align=center;verticalAlign=middle;whiteSpace=wrap;rounded=0;strokeWidth=2;" parent="1" vertex="1">
          <mxGeometry x="107.5" y="886" width="100" height="30" as="geometry" />
        </mxCell>
        <mxCell id="SM7ePQgca3Z7FYj1npnr-137" value="&lt;font style=&quot;font-size: 20px;&quot;&gt;&lt;b&gt;PLAYER &lt;br&gt;CONTROL&lt;/b&gt;&lt;/font&gt;" style="text;html=1;strokeColor=none;fillColor=none;align=left;verticalAlign=middle;whiteSpace=wrap;rounded=0;strokeWidth=2;" parent="1" vertex="1">
          <mxGeometry x="-20" y="350" width="130" height="50" as="geometry" />
        </mxCell>
        <mxCell id="SM7ePQgca3Z7FYj1npnr-138" value="&lt;font style=&quot;font-size: 20px;&quot;&gt;&lt;b&gt;Archery(x,y)&lt;/b&gt;&lt;/font&gt;" style="text;html=1;strokeColor=none;fillColor=none;align=center;verticalAlign=middle;whiteSpace=wrap;rounded=0;strokeWidth=2;" parent="1" vertex="1">
          <mxGeometry x="380" y="380" width="100" height="30" as="geometry" />
        </mxCell>
        <mxCell id="SM7ePQgca3Z7FYj1npnr-140" value="&lt;b style=&quot;font-size: 20px;&quot;&gt;Arrow[n](&lt;/b&gt;&lt;b&gt;&lt;font style=&quot;font-size: 20px;&quot;&gt;visible&lt;/font&gt;&lt;/b&gt;&lt;b style=&quot;font-size: 20px;&quot;&gt;) = 1&lt;/b&gt;" style="text;html=1;strokeColor=none;fillColor=none;align=center;verticalAlign=middle;whiteSpace=wrap;rounded=0;strokeWidth=2;" parent="1" vertex="1">
          <mxGeometry x="510" y="360" width="220" height="30" as="geometry" />
        </mxCell>
        <mxCell id="SM7ePQgca3Z7FYj1npnr-141" value="" style="endArrow=none;dashed=1;html=1;entryX=0.5;entryY=1;entryDx=0;entryDy=0;strokeWidth=1;dashPattern=12 12;" parent="1" target="77" edge="1">
          <mxGeometry width="50" height="50" relative="1" as="geometry">
            <mxPoint x="500" y="1100" as="sourcePoint" />
            <mxPoint x="500" y="160" as="targetPoint" />
          </mxGeometry>
        </mxCell>
        <mxCell id="77" value="" style="rounded=0;whiteSpace=wrap;html=1;strokeWidth=2;fontSize=20;fillColor=#008a00;fontColor=#ffffff;strokeColor=#005700;" parent="1" vertex="1">
          <mxGeometry x="490" y="365" width="20" height="20" as="geometry" />
        </mxCell>
        <mxCell id="SM7ePQgca3Z7FYj1npnr-143" style="edgeStyle=none;html=1;strokeWidth=2;endArrow=classic;endFill=0;endSize=15;dashed=1;dashPattern=1 1;" parent="1" edge="1">
          <mxGeometry relative="1" as="geometry">
            <mxPoint x="490" y="619.7999999999997" as="targetPoint" />
            <mxPoint x="370" y="619.8" as="sourcePoint" />
            <Array as="points">
              <mxPoint x="370" y="619.8" />
              <mxPoint x="380" y="619.8" />
            </Array>
          </mxGeometry>
        </mxCell>
        <mxCell id="SM7ePQgca3Z7FYj1npnr-145" value="" style="endArrow=none;dashed=1;html=1;entryX=0.252;entryY=1.034;entryDx=0;entryDy=0;entryPerimeter=0;strokeWidth=1;dashPattern=12 12;" parent="1" target="3" edge="1">
          <mxGeometry width="50" height="50" relative="1" as="geometry">
            <mxPoint x="221" y="1100" as="sourcePoint" />
            <mxPoint x="221" y="71" as="targetPoint" />
            <Array as="points" />
          </mxGeometry>
        </mxCell>
        <mxCell id="SM7ePQgca3Z7FYj1npnr-146" value="&lt;span style=&quot;font-size: 20px;&quot;&gt;&lt;b&gt;(2)&lt;/b&gt;&lt;/span&gt;" style="text;html=1;strokeColor=none;fillColor=none;align=center;verticalAlign=middle;whiteSpace=wrap;rounded=0;strokeWidth=2;" parent="1" vertex="1">
          <mxGeometry x="365.12" y="180" width="60" height="30" as="geometry" />
        </mxCell>
        <mxCell id="SM7ePQgca3Z7FYj1npnr-147" value="&lt;span style=&quot;font-size: 20px;&quot;&gt;&lt;b&gt;(3)&lt;/b&gt;&lt;/span&gt;" style="text;html=1;strokeColor=none;fillColor=none;align=center;verticalAlign=middle;whiteSpace=wrap;rounded=0;strokeWidth=2;" parent="1" vertex="1">
          <mxGeometry x="500" y="165" width="60" height="30" as="geometry" />
        </mxCell>
        <mxCell id="SM7ePQgca3Z7FYj1npnr-148" value="&lt;span style=&quot;font-size: 20px;&quot;&gt;&lt;b&gt;(4)&lt;/b&gt;&lt;/span&gt;" style="text;html=1;strokeColor=none;fillColor=none;align=center;verticalAlign=middle;whiteSpace=wrap;rounded=0;strokeWidth=2;" parent="1" vertex="1">
          <mxGeometry x="762" y="140" width="60" height="30" as="geometry" />
        </mxCell>
        <mxCell id="SM7ePQgca3Z7FYj1npnr-149" value="&lt;span style=&quot;font-size: 20px;&quot;&gt;&lt;b&gt;(5)&lt;/b&gt;&lt;/span&gt;" style="text;html=1;strokeColor=none;fillColor=none;align=center;verticalAlign=middle;whiteSpace=wrap;rounded=0;strokeWidth=2;" parent="1" vertex="1">
          <mxGeometry x="937" y="120" width="60" height="30" as="geometry" />
        </mxCell>
        <mxCell id="SM7ePQgca3Z7FYj1npnr-150" value="&lt;span style=&quot;font-size: 20px;&quot;&gt;&lt;b&gt;(6)&lt;/b&gt;&lt;/span&gt;" style="text;html=1;strokeColor=none;fillColor=none;align=center;verticalAlign=middle;whiteSpace=wrap;rounded=0;strokeWidth=2;" parent="1" vertex="1">
          <mxGeometry x="1110" y="110" width="60" height="30" as="geometry" />
        </mxCell>
        <mxCell id="SM7ePQgca3Z7FYj1npnr-151" value="&lt;span style=&quot;font-size: 20px;&quot;&gt;&lt;b&gt;(7)&lt;/b&gt;&lt;/span&gt;" style="text;html=1;strokeColor=none;fillColor=none;align=center;verticalAlign=middle;whiteSpace=wrap;rounded=0;strokeWidth=2;" parent="1" vertex="1">
          <mxGeometry x="582.5" y="270" width="60" height="30" as="geometry" />
        </mxCell>
        <mxCell id="SM7ePQgca3Z7FYj1npnr-152" value="&lt;span style=&quot;font-size: 20px;&quot;&gt;&lt;b&gt;(9)&lt;/b&gt;&lt;/span&gt;" style="text;html=1;strokeColor=none;fillColor=none;align=center;verticalAlign=middle;whiteSpace=wrap;rounded=0;strokeWidth=2;" parent="1" vertex="1">
          <mxGeometry x="310" y="410" width="60" height="30" as="geometry" />
        </mxCell>
        <mxCell id="SM7ePQgca3Z7FYj1npnr-153" value="&lt;span style=&quot;font-size: 20px;&quot;&gt;&lt;b&gt;(8)&lt;/b&gt;&lt;/span&gt;" style="text;html=1;strokeColor=none;fillColor=none;align=center;verticalAlign=middle;whiteSpace=wrap;rounded=0;strokeWidth=2;" parent="1" vertex="1">
          <mxGeometry y="320" width="60" height="30" as="geometry" />
        </mxCell>
        <mxCell id="SM7ePQgca3Z7FYj1npnr-154" value="&lt;span style=&quot;font-size: 20px;&quot;&gt;&lt;b&gt;(11)&lt;/b&gt;&lt;/span&gt;" style="text;html=1;strokeColor=none;fillColor=none;align=center;verticalAlign=middle;whiteSpace=wrap;rounded=0;strokeWidth=2;" parent="1" vertex="1">
          <mxGeometry x="280" y="605" width="60" height="30" as="geometry" />
        </mxCell>
        <mxCell id="SM7ePQgca3Z7FYj1npnr-155" value="&lt;span style=&quot;font-size: 20px;&quot;&gt;&lt;b&gt;(12)&lt;/b&gt;&lt;/span&gt;" style="text;html=1;strokeColor=none;fillColor=none;align=center;verticalAlign=middle;whiteSpace=wrap;rounded=0;strokeWidth=2;" parent="1" vertex="1">
          <mxGeometry x="510" y="570" width="60" height="30" as="geometry" />
        </mxCell>
        <mxCell id="SM7ePQgca3Z7FYj1npnr-156" value="&lt;span style=&quot;font-size: 20px;&quot;&gt;&lt;b&gt;(13)&lt;/b&gt;&lt;/span&gt;" style="text;html=1;strokeColor=none;fillColor=none;align=center;verticalAlign=middle;whiteSpace=wrap;rounded=0;strokeWidth=2;" parent="1" vertex="1">
          <mxGeometry x="865.5" y="540" width="60" height="30" as="geometry" />
        </mxCell>
        <mxCell id="SM7ePQgca3Z7FYj1npnr-157" value="&lt;span style=&quot;font-size: 20px;&quot;&gt;&lt;b&gt;(15)&lt;/b&gt;&lt;/span&gt;" style="text;html=1;strokeColor=none;fillColor=none;align=center;verticalAlign=middle;whiteSpace=wrap;rounded=0;strokeWidth=2;" parent="1" vertex="1">
          <mxGeometry x="772.5" y="686.5" width="60" height="30" as="geometry" />
        </mxCell>
        <mxCell id="SM7ePQgca3Z7FYj1npnr-158" value="&lt;span style=&quot;font-size: 20px;&quot;&gt;&lt;b&gt;(14)&lt;/b&gt;&lt;/span&gt;" style="text;html=1;strokeColor=none;fillColor=none;align=center;verticalAlign=middle;whiteSpace=wrap;rounded=0;strokeWidth=2;" parent="1" vertex="1">
          <mxGeometry x="959" y="646.5" width="60" height="30" as="geometry" />
        </mxCell>
        <mxCell id="SM7ePQgca3Z7FYj1npnr-159" value="&lt;span style=&quot;font-size: 20px;&quot;&gt;&lt;b&gt;(17)&lt;/b&gt;&lt;/span&gt;" style="text;html=1;strokeColor=none;fillColor=none;align=center;verticalAlign=middle;whiteSpace=wrap;rounded=0;strokeWidth=2;" parent="1" vertex="1">
          <mxGeometry x="560.12" y="706.5" width="60" height="30" as="geometry" />
        </mxCell>
        <mxCell id="SM7ePQgca3Z7FYj1npnr-160" value="&lt;span style=&quot;font-size: 20px;&quot;&gt;&lt;b&gt;(18)&lt;/b&gt;&lt;/span&gt;" style="text;html=1;strokeColor=none;fillColor=none;align=center;verticalAlign=middle;whiteSpace=wrap;rounded=0;strokeWidth=2;" parent="1" vertex="1">
          <mxGeometry x="1131.5" y="886" width="60" height="30" as="geometry" />
        </mxCell>
        <mxCell id="SM7ePQgca3Z7FYj1npnr-161" value="&lt;span style=&quot;font-size: 20px;&quot;&gt;&lt;b&gt;(19)&lt;/b&gt;&lt;/span&gt;" style="text;html=1;strokeColor=none;fillColor=none;align=center;verticalAlign=middle;whiteSpace=wrap;rounded=0;strokeWidth=2;" parent="1" vertex="1">
          <mxGeometry x="1251.5" y="941" width="60" height="30" as="geometry" />
        </mxCell>
        <mxCell id="SM7ePQgca3Z7FYj1npnr-162" value="&lt;span style=&quot;font-size: 20px;&quot;&gt;&lt;b&gt;(20)&lt;/b&gt;&lt;/span&gt;" style="text;html=1;strokeColor=none;fillColor=none;align=center;verticalAlign=middle;whiteSpace=wrap;rounded=0;strokeWidth=2;" parent="1" vertex="1">
          <mxGeometry x="642.5" y="990.5" width="60" height="30" as="geometry" />
        </mxCell>
        <mxCell id="SM7ePQgca3Z7FYj1npnr-163" value="&lt;span style=&quot;font-size: 20px;&quot;&gt;&lt;b&gt;Archery(x,y)&lt;/b&gt;&lt;/span&gt;" style="text;html=1;strokeColor=none;fillColor=none;align=center;verticalAlign=middle;whiteSpace=wrap;rounded=0;strokeWidth=2;" parent="1" vertex="1">
          <mxGeometry x="380.12" y="230" width="120" height="30" as="geometry" />
        </mxCell>
        <mxCell id="SM7ePQgca3Z7FYj1npnr-164" value="&lt;b style=&quot;border-color: var(--border-color); font-size: 20px;&quot;&gt;&lt;b style=&quot;border-color: var(--border-color);&quot;&gt;Meteoroid[n]&lt;/b&gt;(x)&lt;/b&gt;" style="text;html=1;strokeColor=none;fillColor=none;align=center;verticalAlign=middle;whiteSpace=wrap;rounded=0;strokeWidth=2;" parent="1" vertex="1">
          <mxGeometry x="949" y="185" width="150" height="30" as="geometry" />
        </mxCell>
        <mxCell id="SM7ePQgca3Z7FYj1npnr-166" value="&lt;b style=&quot;border-color: var(--border-color); font-size: 20px;&quot;&gt;Border(x)&lt;/b&gt;" style="text;html=1;strokeColor=none;fillColor=none;align=center;verticalAlign=middle;whiteSpace=wrap;rounded=0;strokeWidth=2;" parent="1" vertex="1">
          <mxGeometry x="790" y="230" width="100" height="30" as="geometry" />
        </mxCell>
        <mxCell id="SM7ePQgca3Z7FYj1npnr-168" value="&lt;span style=&quot;font-size: 20px;&quot;&gt;&lt;b&gt;Arrow[n](x,y)&lt;/b&gt;&lt;/span&gt;" style="text;html=1;strokeColor=none;fillColor=none;align=center;verticalAlign=middle;whiteSpace=wrap;rounded=0;strokeWidth=2;" parent="1" vertex="1">
          <mxGeometry x="511" y="600" width="130" height="30" as="geometry" />
        </mxCell>
        <mxCell id="SM7ePQgca3Z7FYj1npnr-169" value="&lt;span style=&quot;font-size: 20px;&quot;&gt;&lt;b&gt;Archery(x,y)&lt;/b&gt;&lt;/span&gt;" style="text;html=1;strokeColor=none;fillColor=none;align=center;verticalAlign=middle;whiteSpace=wrap;rounded=0;strokeWidth=2;" parent="1" vertex="1">
          <mxGeometry x="380.12" y="670" width="120" height="30" as="geometry" />
        </mxCell>
        <mxCell id="SM7ePQgca3Z7FYj1npnr-172" value="&lt;b style=&quot;border-color: var(--border-color); font-size: 20px;&quot;&gt;&lt;b style=&quot;border-color: var(--border-color);&quot;&gt;Meteoroid[n]&lt;/b&gt;(x)&lt;/b&gt;" style="text;html=1;strokeColor=none;fillColor=none;align=center;verticalAlign=middle;whiteSpace=wrap;rounded=0;strokeWidth=2;" parent="1" vertex="1">
          <mxGeometry x="937" y="550" width="170" height="30" as="geometry" />
        </mxCell>
        <mxCell id="SM7ePQgca3Z7FYj1npnr-173" value="&lt;b style=&quot;border-color: var(--border-color); font-size: 20px;&quot;&gt;&lt;b style=&quot;border-color: var(--border-color);&quot;&gt;Meteoroid[n]&lt;/b&gt;(x,y)&lt;/b&gt;" style="text;html=1;strokeColor=none;fillColor=none;align=center;verticalAlign=middle;whiteSpace=wrap;rounded=0;strokeWidth=2;" parent="1" vertex="1">
          <mxGeometry x="778" y="635" width="171" height="30" as="geometry" />
        </mxCell>
        <mxCell id="SM7ePQgca3Z7FYj1npnr-176" value="&lt;div style=&quot;text-align: center;&quot;&gt;&lt;span style=&quot;font-size: 20px;&quot;&gt;&lt;b&gt;update&lt;/b&gt;&lt;/span&gt;&lt;/div&gt;" style="text;whiteSpace=wrap;html=1;fontSize=16;" parent="1" vertex="1">
          <mxGeometry x="979" y="686.5" width="71" height="33.5" as="geometry" />
        </mxCell>
        <mxCell id="SM7ePQgca3Z7FYj1npnr-177" value="&lt;b style=&quot;border-color: var(--border-color); font-size: 20px;&quot;&gt;Border(x)&lt;/b&gt;" style="text;html=1;strokeColor=none;fillColor=none;align=center;verticalAlign=middle;whiteSpace=wrap;rounded=0;strokeWidth=2;" parent="1" vertex="1">
          <mxGeometry x="950" y="741.5" width="100" height="30" as="geometry" />
        </mxCell>
        <mxCell id="SM7ePQgca3Z7FYj1npnr-179" value="&lt;span style=&quot;font-size: 20px;&quot;&gt;&lt;b&gt;Archery(x,y)&lt;/b&gt;&lt;/span&gt;" style="text;html=1;strokeColor=none;fillColor=none;align=center;verticalAlign=middle;whiteSpace=wrap;rounded=0;strokeWidth=2;" parent="1" vertex="1">
          <mxGeometry x="382.5" y="981" width="120" height="30" as="geometry" />
        </mxCell>
        <mxCell id="SM7ePQgca3Z7FYj1npnr-180" value="&lt;span style=&quot;font-size: 20px;&quot;&gt;&lt;b&gt;RESET&lt;/b&gt;&lt;/span&gt;" style="text;html=1;strokeColor=none;fillColor=none;align=center;verticalAlign=middle;whiteSpace=wrap;rounded=0;strokeWidth=2;" parent="1" vertex="1">
          <mxGeometry x="1131.5" y="926" width="100" height="30" as="geometry" />
        </mxCell>
        <mxCell id="SM7ePQgca3Z7FYj1npnr-181" value="&lt;span style=&quot;font-size: 20px;&quot;&gt;&lt;b&gt;EXIT&lt;/b&gt;&lt;/span&gt;" style="text;html=1;strokeColor=none;fillColor=none;align=center;verticalAlign=middle;whiteSpace=wrap;rounded=0;strokeWidth=2;" parent="1" vertex="1">
          <mxGeometry x="941.5" y="1000" width="100" height="30" as="geometry" />
        </mxCell>
        <mxCell id="i-jlYU0YFLsD1YkG08GD-126" style="edgeStyle=none;html=1;strokeWidth=3;entryX=0;entryY=0;entryDx=0;entryDy=0;" parent="1" target="77" edge="1">
          <mxGeometry relative="1" as="geometry">
            <mxPoint x="351" y="365" as="targetPoint" />
            <mxPoint x="80" y="365" as="sourcePoint" />
            <Array as="points" />
          </mxGeometry>
        </mxCell>
        <mxCell id="i-jlYU0YFLsD1YkG08GD-187" value="&lt;span style=&quot;font-size: 20px;&quot;&gt;&lt;b&gt;(16)&lt;/b&gt;&lt;/span&gt;" style="text;html=1;strokeColor=none;fillColor=none;align=center;verticalAlign=middle;whiteSpace=wrap;rounded=0;strokeWidth=2;" parent="1" vertex="1">
          <mxGeometry x="1110" y="706.5" width="60" height="30" as="geometry" />
        </mxCell>
        <mxCell id="Kq7Vi0KwZZ0XseQO3FKs-132" value="&lt;span style=&quot;font-size: 20px;&quot;&gt;&lt;b&gt;[MODE]&lt;/b&gt;&lt;/span&gt;" style="text;html=1;strokeColor=none;fillColor=none;align=center;verticalAlign=middle;whiteSpace=wrap;rounded=0;strokeWidth=2;" parent="1" vertex="1">
          <mxGeometry x="100" y="335" width="80" height="30" as="geometry" />
        </mxCell>
        <mxCell id="Kq7Vi0KwZZ0XseQO3FKs-133" value="&lt;span style=&quot;font-size: 20px;&quot;&gt;&lt;b&gt;[Up] / [Down]&lt;/b&gt;&lt;/span&gt;" style="text;html=1;strokeColor=none;fillColor=none;align=center;verticalAlign=middle;whiteSpace=wrap;rounded=0;strokeWidth=2;" parent="1" vertex="1">
          <mxGeometry x="90" y="385" width="130" height="30" as="geometry" />
        </mxCell>
        <mxCell id="70" value="" style="rounded=0;whiteSpace=wrap;html=1;strokeWidth=2;fontSize=20;fillColor=#a0522d;fontColor=#ffffff;strokeColor=#6D1F00;" parent="1" vertex="1">
          <mxGeometry x="1098" y="120" width="20" height="120" as="geometry" />
        </mxCell>
        <mxCell id="Kq7Vi0KwZZ0XseQO3FKs-135" value="" style="endArrow=none;dashed=1;html=1;entryX=0.5;entryY=1;entryDx=0;entryDy=0;startArrow=none;strokeWidth=1;dashPattern=12 12;entryPerimeter=0;" parent="1" source="98" target="87" edge="1">
          <mxGeometry width="50" height="50" relative="1" as="geometry">
            <mxPoint x="940" y="631.5" as="sourcePoint" />
            <mxPoint x="940" y="636.4999999999998" as="targetPoint" />
          </mxGeometry>
        </mxCell>
        <mxCell id="87" value="" style="rounded=0;whiteSpace=wrap;html=1;strokeWidth=2;fontSize=20;fillColor=#f0a30a;fontColor=#000000;strokeColor=#BD7000;" parent="1" vertex="1">
          <mxGeometry x="930" y="540" width="20" height="90" as="geometry" />
        </mxCell>
        <mxCell id="Kq7Vi0KwZZ0XseQO3FKs-136" style="edgeStyle=none;html=1;strokeWidth=2;entryX=1.078;entryY=0.353;entryDx=0;entryDy=0;exitX=0;exitY=1;exitDx=0;exitDy=0;entryPerimeter=0;endArrow=classic;endFill=0;endSize=15;dashed=1;dashPattern=1 1;" parent="1" source="i-jlYU0YFLsD1YkG08GD-182" target="94" edge="1">
          <mxGeometry relative="1" as="geometry">
            <mxPoint x="640" y="670" as="targetPoint" />
            <mxPoint x="750" y="670" as="sourcePoint" />
            <Array as="points" />
          </mxGeometry>
        </mxCell>
        <mxCell id="Kq7Vi0KwZZ0XseQO3FKs-138" value="" style="endArrow=none;dashed=1;html=1;strokeWidth=1;dashPattern=12 12;" parent="1" target="119" edge="1">
          <mxGeometry width="50" height="50" relative="1" as="geometry">
            <mxPoint x="1110" y="1100" as="sourcePoint" />
            <mxPoint x="1119.5" y="626" as="targetPoint" />
          </mxGeometry>
        </mxCell>
        <mxCell id="119" value="" style="rounded=0;whiteSpace=wrap;html=1;strokeWidth=2;fontSize=20;fillColor=#a0522d;fontColor=#ffffff;strokeColor=#6D1F00;" parent="1" vertex="1">
          <mxGeometry x="1099.5" y="870" width="20" height="100" as="geometry" />
        </mxCell>
        <mxCell id="54iJJQRXf7UF0huxAOe8-127" value="&lt;b style=&quot;border-color: var(--border-color); font-size: 20px;&quot;&gt;&lt;b style=&quot;border-color: var(--border-color);&quot;&gt;Meteoroid[n]&lt;/b&gt;(x)&lt;/b&gt;" style="text;html=1;strokeColor=none;fillColor=none;align=center;verticalAlign=middle;whiteSpace=wrap;rounded=0;strokeWidth=2;" parent="1" vertex="1">
          <mxGeometry x="952.5" y="901" width="150" height="30" as="geometry" />
        </mxCell>
        <mxCell id="54iJJQRXf7UF0huxAOe8-128" value="&lt;b style=&quot;border-color: var(--border-color); font-size: 20px;&quot;&gt;&lt;b style=&quot;border-color: var(--border-color);&quot;&gt;Meteoroid[n]&lt;/b&gt;(x,y)&lt;/b&gt;" style="text;html=1;strokeColor=none;fillColor=none;align=center;verticalAlign=middle;whiteSpace=wrap;rounded=0;strokeWidth=2;" parent="1" vertex="1">
          <mxGeometry x="677" y="936" width="191" height="30" as="geometry" />
        </mxCell>
        <mxCell id="113" value="" style="rounded=0;whiteSpace=wrap;html=1;strokeWidth=2;fontSize=20;fillColor=#60a917;fontColor=#ffffff;strokeColor=#2D7600;" parent="1" vertex="1">
          <mxGeometry x="492.5" y="931" width="20" height="20" as="geometry" />
        </mxCell>
        <mxCell id="eqqADigUgOdr0eqPzCLK-130" value="" style="endArrow=none;dashed=1;html=1;entryX=0.5;entryY=1;entryDx=0;entryDy=0;startArrow=none;strokeWidth=1;dashPattern=12 12;" parent="1" target="124" edge="1">
          <mxGeometry width="50" height="50" relative="1" as="geometry">
            <mxPoint x="1250" y="1100" as="sourcePoint" />
            <mxPoint x="1260.7399999999993" y="36" as="targetPoint" />
          </mxGeometry>
        </mxCell>
        <mxCell id="124" value="" style="rounded=0;whiteSpace=wrap;html=1;strokeWidth=2;fontSize=20;fillColor=#6d8764;fontColor=#ffffff;strokeColor=#3A5431;" parent="1" vertex="1">
          <mxGeometry x="1241.5" y="970" width="20" height="60" as="geometry" />
        </mxCell>
        <mxCell id="86" value="" style="rounded=0;whiteSpace=wrap;html=1;strokeWidth=2;fontSize=20;fillColor=#60a917;fontColor=#ffffff;strokeColor=#2D7600;" parent="1" vertex="1">
          <mxGeometry x="490" y="580" width="20" height="80" as="geometry" />
        </mxCell>
        <mxCell id="eqqADigUgOdr0eqPzCLK-131" value="" style="rounded=0;whiteSpace=wrap;html=1;strokeWidth=2;fontSize=20;fillColor=#60a917;fontColor=#ffffff;strokeColor=#2D7600;" parent="1" vertex="1">
          <mxGeometry x="120" y="1240" width="31" height="30" as="geometry" />
        </mxCell>
        <mxCell id="eqqADigUgOdr0eqPzCLK-132" value="" style="rounded=0;whiteSpace=wrap;html=1;strokeWidth=2;fontSize=20;fillColor=#d80073;fontColor=#ffffff;strokeColor=#A50040;" parent="1" vertex="1">
          <mxGeometry x="120" y="1400" width="30" height="30" as="geometry" />
        </mxCell>
        <mxCell id="eqqADigUgOdr0eqPzCLK-133" value="" style="rounded=0;whiteSpace=wrap;html=1;strokeWidth=2;fontSize=20;fillColor=#f8cecc;strokeColor=#b85450;" parent="1" vertex="1">
          <mxGeometry x="120" y="1160" width="30" height="30" as="geometry" />
        </mxCell>
        <mxCell id="eqqADigUgOdr0eqPzCLK-135" value="" style="rounded=0;whiteSpace=wrap;html=1;strokeWidth=2;fontSize=20;fillColor=#008a00;fontColor=#ffffff;strokeColor=#005700;" parent="1" vertex="1">
          <mxGeometry x="120" y="1320" width="30" height="30" as="geometry" />
        </mxCell>
        <mxCell id="eqqADigUgOdr0eqPzCLK-136" value="" style="rounded=0;whiteSpace=wrap;html=1;strokeWidth=2;fontSize=20;fillColor=#1ba1e2;fontColor=#ffffff;strokeColor=#006EAF;" parent="1" vertex="1">
          <mxGeometry x="560" y="1160" width="30" height="30" as="geometry" />
        </mxCell>
        <mxCell id="eqqADigUgOdr0eqPzCLK-137" value="" style="rounded=0;whiteSpace=wrap;html=1;strokeWidth=2;fontSize=20;fillColor=#6a00ff;fontColor=#ffffff;strokeColor=#3700CC;" parent="1" vertex="1">
          <mxGeometry x="560" y="1240" width="30" height="30" as="geometry" />
        </mxCell>
        <mxCell id="eqqADigUgOdr0eqPzCLK-138" value="" style="rounded=0;whiteSpace=wrap;html=1;strokeWidth=2;fontSize=20;fillColor=#f0a30a;fontColor=#000000;strokeColor=#BD7000;" parent="1" vertex="1">
          <mxGeometry x="560" y="1320" width="29" height="30" as="geometry" />
        </mxCell>
        <mxCell id="eqqADigUgOdr0eqPzCLK-139" value="" style="rounded=0;whiteSpace=wrap;html=1;strokeWidth=2;fontSize=20;fillColor=#fa6800;fontColor=#000000;strokeColor=#C73500;" parent="1" vertex="1">
          <mxGeometry x="560" y="1400" width="30" height="30" as="geometry" />
        </mxCell>
        <mxCell id="eqqADigUgOdr0eqPzCLK-141" value="" style="rounded=0;whiteSpace=wrap;html=1;strokeWidth=2;fontSize=20;fillColor=#a0522d;fontColor=#ffffff;strokeColor=#6D1F00;" parent="1" vertex="1">
          <mxGeometry x="1001" y="1160" width="30" height="30" as="geometry" />
        </mxCell>
        <mxCell id="eqqADigUgOdr0eqPzCLK-142" value="" style="rounded=0;whiteSpace=wrap;html=1;strokeWidth=2;fontSize=20;fillColor=#76608a;fontColor=#ffffff;strokeColor=#432D57;" parent="1" vertex="1">
          <mxGeometry x="1001" y="1240" width="30" height="30" as="geometry" />
        </mxCell>
        <mxCell id="eqqADigUgOdr0eqPzCLK-143" value="" style="rounded=0;whiteSpace=wrap;html=1;strokeWidth=2;fontSize=20;fillColor=#6d8764;fontColor=#ffffff;strokeColor=#3A5431;" parent="1" vertex="1">
          <mxGeometry x="1000" y="1320" width="30" height="30" as="geometry" />
        </mxCell>
        <mxCell id="eqqADigUgOdr0eqPzCLK-144" value="&lt;span style=&quot;font-size: 20px;&quot;&gt;&lt;b&gt;archery_update&lt;/b&gt;&lt;/span&gt;" style="text;html=1;strokeColor=none;fillColor=none;align=center;verticalAlign=middle;whiteSpace=wrap;rounded=0;strokeWidth=2;" parent="1" vertex="1">
          <mxGeometry x="160" y="1160" width="150" height="30" as="geometry" />
        </mxCell>
        <mxCell id="eqqADigUgOdr0eqPzCLK-145" value="&lt;div style=&quot;text-align: left;&quot;&gt;&lt;b style=&quot;font-size: 20px; background-color: initial;&quot;&gt;Control:&lt;/b&gt;&lt;/div&gt;&lt;span style=&quot;font-size: 20px;&quot;&gt;&lt;div style=&quot;text-align: left;&quot;&gt;&lt;b style=&quot;background-color: initial;&quot;&gt;archery_up&lt;/b&gt;&lt;/div&gt;&lt;b&gt;&lt;div style=&quot;text-align: left;&quot;&gt;&lt;b style=&quot;background-color: initial;&quot;&gt;archery_down&lt;/b&gt;&lt;/div&gt;&lt;/b&gt;&lt;/span&gt;" style="text;html=1;strokeColor=none;fillColor=none;align=center;verticalAlign=middle;whiteSpace=wrap;rounded=0;strokeWidth=2;" parent="1" vertex="1">
          <mxGeometry x="160" y="1400" width="140" height="80" as="geometry" />
        </mxCell>
        <mxCell id="eqqADigUgOdr0eqPzCLK-146" value="&lt;span style=&quot;font-size: 20px;&quot;&gt;&lt;b&gt;arrow_run&lt;/b&gt;&lt;/span&gt;" style="text;html=1;strokeColor=none;fillColor=none;align=center;verticalAlign=middle;whiteSpace=wrap;rounded=0;strokeWidth=2;" parent="1" vertex="1">
          <mxGeometry x="160" y="1240" width="100" height="30" as="geometry" />
        </mxCell>
        <mxCell id="eqqADigUgOdr0eqPzCLK-174" value="&lt;span style=&quot;font-size: 20px;&quot;&gt;&lt;b&gt;screen_update&lt;/b&gt;&lt;/span&gt;" style="text;html=1;strokeColor=none;fillColor=none;align=center;verticalAlign=middle;whiteSpace=wrap;rounded=0;strokeWidth=2;" parent="1" vertex="1">
          <mxGeometry x="600" y="1160" width="140" height="30" as="geometry" />
        </mxCell>
        <mxCell id="eqqADigUgOdr0eqPzCLK-175" value="&lt;span style=&quot;font-size: 20px;&quot;&gt;&lt;b&gt;meteoroid_run&lt;/b&gt;&lt;/span&gt;" style="text;html=1;strokeColor=none;fillColor=none;align=center;verticalAlign=middle;whiteSpace=wrap;rounded=0;strokeWidth=2;" parent="1" vertex="1">
          <mxGeometry x="600" y="1320" width="140" height="30" as="geometry" />
        </mxCell>
        <mxCell id="eqqADigUgOdr0eqPzCLK-176" value="&lt;span style=&quot;font-size: 20px;&quot;&gt;&lt;b&gt;check_game_over&lt;/b&gt;&lt;/span&gt;" style="text;html=1;strokeColor=none;fillColor=none;align=center;verticalAlign=middle;whiteSpace=wrap;rounded=0;strokeWidth=2;" parent="1" vertex="1">
          <mxGeometry x="1040" y="1160" width="180" height="30" as="geometry" />
        </mxCell>
        <mxCell id="eqqADigUgOdr0eqPzCLK-177" value="&lt;span style=&quot;font-size: 20px;&quot;&gt;&lt;b&gt;exit_game&lt;/b&gt;&lt;/span&gt;" style="text;html=1;strokeColor=none;fillColor=none;align=center;verticalAlign=middle;whiteSpace=wrap;rounded=0;strokeWidth=2;" parent="1" vertex="1">
          <mxGeometry x="1040" y="1320" width="100" height="30" as="geometry" />
        </mxCell>
        <mxCell id="eqqADigUgOdr0eqPzCLK-178" value="&lt;span style=&quot;font-size: 20px;&quot;&gt;&lt;b&gt;arrow_shoot&lt;/b&gt;&lt;/span&gt;" style="text;html=1;strokeColor=none;fillColor=none;align=center;verticalAlign=middle;whiteSpace=wrap;rounded=0;strokeWidth=2;" parent="1" vertex="1">
          <mxGeometry x="160" y="1320" width="120" height="30" as="geometry" />
        </mxCell>
        <mxCell id="eqqADigUgOdr0eqPzCLK-179" value="&lt;span style=&quot;font-size: 20px;&quot;&gt;&lt;b&gt;bang_update&lt;/b&gt;&lt;/span&gt;" style="text;html=1;strokeColor=none;fillColor=none;align=center;verticalAlign=middle;whiteSpace=wrap;rounded=0;strokeWidth=2;" parent="1" vertex="1">
          <mxGeometry x="600" y="1240" width="120" height="30" as="geometry" />
        </mxCell>
        <mxCell id="eqqADigUgOdr0eqPzCLK-180" value="&lt;span style=&quot;font-size: 20px;&quot;&gt;&lt;b&gt;meteoroid_detonator&lt;/b&gt;&lt;/span&gt;" style="text;html=1;strokeColor=none;fillColor=none;align=center;verticalAlign=middle;whiteSpace=wrap;rounded=0;strokeWidth=2;" parent="1" vertex="1">
          <mxGeometry x="600" y="1400" width="200" height="30" as="geometry" />
        </mxCell>
        <mxCell id="eqqADigUgOdr0eqPzCLK-181" value="&lt;span style=&quot;font-size: 20px;&quot;&gt;&lt;b&gt;border_update&lt;/b&gt;&lt;/span&gt;" style="text;html=1;strokeColor=none;fillColor=none;align=center;verticalAlign=middle;whiteSpace=wrap;rounded=0;strokeWidth=2;" parent="1" vertex="1">
          <mxGeometry x="1040" y="1240" width="140" height="30" as="geometry" />
        </mxCell>
        <mxCell id="eqqADigUgOdr0eqPzCLK-183" style="edgeStyle=none;html=1;strokeWidth=3;" parent="1" edge="1">
          <mxGeometry relative="1" as="geometry">
            <mxPoint x="1029.5" y="1427.5" as="targetPoint" />
            <mxPoint x="1000.5" y="1402.5" as="sourcePoint" />
            <Array as="points">
              <mxPoint x="1000.5" y="1402.5" />
            </Array>
          </mxGeometry>
        </mxCell>
        <mxCell id="eqqADigUgOdr0eqPzCLK-184" value="&lt;span style=&quot;font-size: 20px;&quot;&gt;&lt;b&gt;Signal&lt;/b&gt;&lt;/span&gt;" style="text;html=1;strokeColor=none;fillColor=none;align=center;verticalAlign=middle;whiteSpace=wrap;rounded=0;strokeWidth=2;" parent="1" vertex="1">
          <mxGeometry x="1040" y="1410" width="70" height="30" as="geometry" />
        </mxCell>
        <mxCell id="eqqADigUgOdr0eqPzCLK-185" style="edgeStyle=none;html=1;strokeWidth=3;entryX=0;entryY=0;entryDx=0;entryDy=0;" parent="1" target="70" edge="1">
          <mxGeometry relative="1" as="geometry">
            <mxPoint x="1140" y="120" as="targetPoint" />
            <mxPoint x="220" y="120" as="sourcePoint" />
            <Array as="points">
              <mxPoint x="220" y="120" />
            </Array>
          </mxGeometry>
        </mxCell>
        <mxCell id="eqqADigUgOdr0eqPzCLK-186" style="edgeStyle=none;html=1;strokeWidth=3;entryX=0;entryY=0;entryDx=0;entryDy=0;strokeColor=#000000;" parent="1" target="eqqADigUgOdr0eqPzCLK-187" edge="1">
          <mxGeometry relative="1" as="geometry">
            <mxPoint x="493.5" y="905" as="targetPoint" />
            <mxPoint x="222.5" y="910" as="sourcePoint" />
            <Array as="points">
              <mxPoint x="222.5" y="910" />
            </Array>
          </mxGeometry>
        </mxCell>
        <mxCell id="eqqADigUgOdr0eqPzCLK-187" value="" style="rounded=0;whiteSpace=wrap;html=1;strokeWidth=2;fontSize=20;fillColor=#6a00ff;fontColor=#ffffff;strokeColor=#3700CC;" parent="1" vertex="1">
          <mxGeometry x="752.5" y="910" width="20" height="20" as="geometry" />
        </mxCell>
        <mxCell id="i-jlYU0YFLsD1YkG08GD-182" value="" style="rounded=0;whiteSpace=wrap;html=1;strokeWidth=2;fontSize=20;fillColor=#6a00ff;fontColor=#ffffff;strokeColor=#3700CC;" parent="1" vertex="1">
          <mxGeometry x="750" y="560" width="20" height="140" as="geometry" />
        </mxCell>
        <mxCell id="eqqADigUgOdr0eqPzCLK-191" style="edgeStyle=none;html=1;exitX=1;exitY=0;exitDx=0;exitDy=0;strokeWidth=3;entryX=0;entryY=0;entryDx=0;entryDy=0;" parent="1" target="i-jlYU0YFLsD1YkG08GD-182" edge="1">
          <mxGeometry relative="1" as="geometry">
            <mxPoint x="490.12" y="559" as="targetPoint" />
            <mxPoint x="220.12" y="559" as="sourcePoint" />
            <Array as="points">
              <mxPoint x="220.12" y="559" />
            </Array>
          </mxGeometry>
        </mxCell>
        <mxCell id="eqqADigUgOdr0eqPzCLK-192" style="edgeStyle=none;html=1;strokeWidth=3;entryX=0;entryY=0;entryDx=0;entryDy=0;" parent="1" target="92" edge="1">
          <mxGeometry relative="1" as="geometry">
            <mxPoint x="1140" y="520" as="targetPoint" />
            <mxPoint x="220" y="520" as="sourcePoint" />
            <Array as="points">
              <mxPoint x="220" y="520" />
            </Array>
          </mxGeometry>
        </mxCell>
        <mxCell id="eqqADigUgOdr0eqPzCLK-212" style="edgeStyle=none;html=1;strokeWidth=2;endArrow=classic;endFill=0;endSize=15;dashed=1;dashPattern=1 1;" parent="1" edge="1">
          <mxGeometry relative="1" as="geometry">
            <mxPoint x="620" y="660" as="targetPoint" />
            <mxPoint x="510" y="660" as="sourcePoint" />
            <Array as="points">
              <mxPoint x="510" y="660" />
              <mxPoint x="520" y="660" />
            </Array>
          </mxGeometry>
        </mxCell>
        <mxCell id="eqqADigUgOdr0eqPzCLK-213" style="edgeStyle=none;html=1;strokeWidth=2;endArrow=classic;endFill=0;dashed=1;dashPattern=1 1;endSize=15;" parent="1" edge="1">
          <mxGeometry relative="1" as="geometry">
            <mxPoint x="1030" y="1477.5" as="targetPoint" />
            <mxPoint x="1001" y="1452.5" as="sourcePoint" />
            <Array as="points">
              <mxPoint x="1001" y="1452.5" />
            </Array>
          </mxGeometry>
        </mxCell>
        <mxCell id="eqqADigUgOdr0eqPzCLK-214" value="&lt;span style=&quot;font-size: 20px;&quot;&gt;&lt;b&gt;Data transfer&lt;/b&gt;&lt;/span&gt;" style="text;html=1;strokeColor=none;fillColor=none;align=center;verticalAlign=middle;whiteSpace=wrap;rounded=0;strokeWidth=2;" parent="1" vertex="1">
          <mxGeometry x="1040" y="1450" width="130" height="30" as="geometry" />
        </mxCell>
        <mxCell id="eqqADigUgOdr0eqPzCLK-215" value="" style="rounded=0;whiteSpace=wrap;html=1;strokeWidth=2;fontSize=20;fillColor=#76608a;fontColor=#ffffff;strokeColor=#432D57;" parent="1" vertex="1">
          <mxGeometry x="1098" y="196.5" width="20" height="63.5" as="geometry" />
        </mxCell>
        <mxCell id="SM7ePQgca3Z7FYj1npnr-165" value="&lt;b style=&quot;border-color: var(--border-color); font-size: 20px;&quot;&gt;&lt;b style=&quot;border-color: var(--border-color);&quot;&gt;Meteoroid[n]&lt;/b&gt;(x,y)&lt;/b&gt;" style="text;html=1;strokeColor=none;fillColor=none;align=center;verticalAlign=middle;whiteSpace=wrap;rounded=0;strokeWidth=2;" parent="1" vertex="1">
          <mxGeometry x="696.5" y="200" width="191" height="30" as="geometry" />
        </mxCell>
        <mxCell id="eqqADigUgOdr0eqPzCLK-218" value="" style="rounded=0;whiteSpace=wrap;html=1;strokeWidth=2;fontSize=20;fillColor=#fa6800;fontColor=#000000;strokeColor=#C73500;" parent="1" vertex="1">
          <mxGeometry x="929" y="180" width="20" height="20" as="geometry" />
        </mxCell>
        <mxCell id="eqqADigUgOdr0eqPzCLK-220" value="" style="rounded=0;whiteSpace=wrap;html=1;strokeWidth=2;fontSize=20;fillColor=#fa6800;fontColor=#000000;strokeColor=#C73500;" parent="1" vertex="1">
          <mxGeometry x="932.5" y="940" width="20" height="30" as="geometry" />
        </mxCell>
        <mxCell id="eqqADigUgOdr0eqPzCLK-221" style="edgeStyle=none;html=1;strokeWidth=2;entryX=1.03;entryY=0.821;entryDx=0;entryDy=0;fontStyle=1;entryPerimeter=0;endArrow=classic;endFill=0;endSize=15;dashed=1;dashPattern=1 1;" parent="1" edge="1">
          <mxGeometry relative="1" as="geometry">
            <mxPoint x="770.5999999999999" y="670.3100000000001" as="targetPoint" />
            <mxPoint x="930" y="670" as="sourcePoint" />
            <Array as="points">
              <mxPoint x="930" y="670" />
            </Array>
          </mxGeometry>
        </mxCell>
        <mxCell id="eqqADigUgOdr0eqPzCLK-223" style="edgeStyle=none;html=1;strokeWidth=3;entryX=0;entryY=0;entryDx=0;entryDy=0;" parent="1" target="119" edge="1">
          <mxGeometry relative="1" as="geometry">
            <mxPoint x="1092.5" y="870" as="targetPoint" />
            <mxPoint x="222.5" y="870" as="sourcePoint" />
            <Array as="points">
              <mxPoint x="222.5" y="870" />
            </Array>
          </mxGeometry>
        </mxCell>
        <mxCell id="eqqADigUgOdr0eqPzCLK-225" style="edgeStyle=none;html=1;strokeWidth=3;entryX=1;entryY=1;entryDx=0;entryDy=0;exitX=0;exitY=1;exitDx=0;exitDy=0;endArrow=classic;endFill=1;endSize=15;" parent="1" source="124" target="121" edge="1">
          <mxGeometry relative="1" as="geometry">
            <mxPoint x="642.5" y="1031" as="targetPoint" />
            <mxPoint x="1302.5" y="1030" as="sourcePoint" />
            <Array as="points" />
          </mxGeometry>
        </mxCell>
        <mxCell id="eqqADigUgOdr0eqPzCLK-226" value="" style="rounded=0;whiteSpace=wrap;html=1;strokeWidth=2;fontSize=20;fillColor=#6a00ff;fontColor=#ffffff;strokeColor=#3700CC;" parent="1" vertex="1">
          <mxGeometry x="750" y="160" width="20" height="20" as="geometry" />
        </mxCell>
        <mxCell id="eqqADigUgOdr0eqPzCLK-227" style="edgeStyle=none;html=1;strokeWidth=3;entryX=0;entryY=0;entryDx=0;entryDy=0;strokeColor=#151515;" parent="1" edge="1">
          <mxGeometry relative="1" as="geometry">
            <mxPoint x="750" y="159.99999999999977" as="targetPoint" />
            <mxPoint x="220" y="160" as="sourcePoint" />
            <Array as="points">
              <mxPoint x="220" y="160" />
            </Array>
          </mxGeometry>
        </mxCell>
        <mxCell id="i-jlYU0YFLsD1YkG08GD-183" value="&lt;b style=&quot;border-color: var(--border-color); font-size: 20px;&quot;&gt;Bang[n](x,y)&lt;/b&gt;" style="text;html=1;strokeColor=none;fillColor=none;align=center;verticalAlign=middle;whiteSpace=wrap;rounded=0;strokeWidth=2;" parent="1" vertex="1">
          <mxGeometry x="642.5" y="660" width="121" height="30" as="geometry" />
        </mxCell>
        <mxCell id="1E_yoeSG3TTSxHxJZ5ZW-125" value="&lt;span style=&quot;font-size: 20px;&quot;&gt;&lt;b&gt;(10)&lt;/b&gt;&lt;/span&gt;" style="text;html=1;strokeColor=none;fillColor=none;align=center;verticalAlign=middle;whiteSpace=wrap;rounded=0;strokeWidth=2;" parent="1" vertex="1">
          <mxGeometry x="522.5" y="410" width="60" height="30" as="geometry" />
        </mxCell>
      </root>
    </mxGraphModel>
  </diagram>
</mxfile>
